<svg width="24" height="24" viewBox="0 0 24 24" fill="none" xmlns="http://www.w3.org/2000/svg">
<path fill-rule="evenodd" clip-rule="evenodd" d="M4.30459 3.8255C2.95345 4.14746 2 5.35481 2 6.74378V17.2562C2 18.6452 2.95345 19.8526 4.30459 20.1745L7.5364 20.9446C8.79324 21.2441 10 20.2911 10 18.9991V5.00091C10 3.70887 8.79324 2.75589 7.5364 3.05538L4.30459 3.8255ZM16.2929 7.29289C16.6834 6.90237 17.3166 6.90237 17.7071 7.29289L21.7071 11.2929C21.8033 11.3891 21.8759 11.5001 21.9247 11.6186C21.9729 11.7352 21.9996 11.863 22 11.997L22 12L22 12.003C21.9992 12.2713 21.8928 12.5147 21.7201 12.6939L21.7055 12.7087L17.7071 16.7071C17.3166 17.0976 16.6834 17.0976 16.2929 16.7071C15.9024 16.3166 15.9024 15.6834 16.2929 15.2929L18.5858 13L13 13C12.4477 13 12 12.5523 12 12C12 11.4477 12.4477 11 13 11L18.5858 11L16.2929 8.7071C15.9024 8.31658 15.9024 7.68341 16.2929 7.29289Z" fill="#A1A1A3"/>
</svg>
