<svg width="24" height="24" viewBox="0 0 24 24" fill="none" xmlns="http://www.w3.org/2000/svg">
<path fill-rule="evenodd" clip-rule="evenodd" d="M11.533 12C14.2944 12 16.533 9.76142 16.533 7C16.533 4.23858 14.2944 2 11.533 2C8.77162 2 6.53303 4.23858 6.53303 7C6.53303 9.76142 8.77162 12 11.533 12ZM8.00514 14C5.03163 14 3.09767 17.1292 4.42744 19.7888L4.98024 20.8944C5.31904 21.572 6.01155 22 6.76911 22H16.2969C17.0545 22 17.747 21.572 18.0858 20.8944L18.6386 19.7889C19.9684 17.1292 18.0344 14 15.0609 14H8.00514Z" fill="#A1A1A3"/>
</svg>
