<svg width="20" height="20" viewBox="0 0 20 20" fill="none" xmlns="http://www.w3.org/2000/svg">
<path d="M9.11962 20C8.87081 20 8.66029 19.9298 8.48804 19.7895C8.31579 19.6555 8.20096 19.4641 8.14354 19.2153L7.77966 17.6758C7.6964 17.3236 7.43735 17.0414 7.10048 16.9091C6.77965 16.7831 6.41584 16.7981 6.12217 16.9785L4.75598 17.8182C4.54545 17.9458 4.32855 18 4.10526 17.9809C3.88836 17.9617 3.69378 17.866 3.52153 17.6938L2.29665 16.4689C2.1244 16.2966 2.02552 16.0957 2 15.866C1.98086 15.6364 2.04147 15.4195 2.18182 15.2153L3.01261 13.8591C3.19307 13.5645 3.21169 13.2003 3.08134 12.8804C2.95342 12.5664 2.69627 12.3151 2.36648 12.2364L0.77512 11.8565C0.526316 11.8054 0.334928 11.6938 0.200957 11.5215C0.0669856 11.3493 0 11.1388 0 10.89V9.15789C0 8.91547 0.0669856 8.70813 0.200957 8.53588C0.334928 8.36364 0.526316 8.25199 0.77512 8.20096L2.30936 7.83134C2.66246 7.74628 2.93474 7.47511 3.07177 7.13876C3.20748 6.83341 3.18036 6.4817 3.0078 6.19556L2.16268 4.79426C2.02233 4.59011 1.96172 4.37959 1.98086 4.16268C2 3.93939 2.09888 3.74163 2.27751 3.56938L3.52153 2.33493C3.70016 2.16906 3.89155 2.07337 4.09569 2.04785C4.30622 2.02233 4.51675 2.07018 4.72727 2.19139L6.11002 3.0467C6.40377 3.2284 6.76942 3.23635 7.09091 3.11005C7.43241 2.96874 7.69726 2.68136 7.78191 2.3216L8.14354 0.784689C8.20096 0.542265 8.31579 0.350877 8.48804 0.210526C8.66029 0.0701754 8.87081 0 9.11962 0H10.8804C11.1292 0 11.3397 0.0701754 11.512 0.210526C11.6842 0.350877 11.7959 0.542265 11.8469 0.784689L12.2104 2.34366C12.2936 2.70043 12.5603 2.9814 12.8995 3.11962C13.2153 3.24366 13.5751 3.23941 13.8638 3.06121L15.2727 2.19139C15.4833 2.07018 15.6906 2.02552 15.8947 2.05742C16.0989 2.08293 16.2903 2.17544 16.4689 2.33493L17.7225 3.56938C17.9011 3.74163 17.9968 3.93939 18.0096 4.16268C18.0287 4.37959 17.9713 4.59011 17.8373 4.79426L16.9824 6.19979C16.8101 6.48313 16.784 6.83163 16.9091 7.13876C17.0589 7.47585 17.3384 7.74648 17.697 7.83287L19.2249 8.20096C19.4673 8.25199 19.6555 8.36364 19.7895 8.53588C19.9298 8.70813 20 8.91547 20 9.15789V10.89C20 11.1388 19.9298 11.3493 19.7895 11.5215C19.6555 11.6938 19.4673 11.8054 19.2249 11.8565L17.6366 12.2357C17.3032 12.3152 17.0384 12.563 16.9091 12.8804C16.7897 13.2028 16.799 13.5656 16.9797 13.8581L17.8182 15.2153C17.9585 15.4195 18.0159 15.6364 17.9904 15.866C17.9713 16.0957 17.8756 16.2966 17.7033 16.4689L16.4689 17.6938C16.2966 17.866 16.0989 17.9617 15.8756 17.9809C15.6587 18 15.4482 17.9458 15.244 17.8182L13.8689 16.9775C13.5747 16.7976 13.2109 16.783 12.89 16.9091C12.5531 17.0414 12.294 17.3236 12.2108 17.6758L11.8469 19.2153C11.7959 19.4641 11.6842 19.6555 11.512 19.7895C11.3397 19.9298 11.1292 20 10.8804 20H9.11962ZM10 13.378C10.6188 13.378 11.1834 13.2249 11.6938 12.9187C12.2105 12.6124 12.6188 12.2041 12.9187 11.6938C13.2249 11.177 13.378 10.6092 13.378 9.99043C13.378 9.37161 13.2249 8.81021 12.9187 8.30622C12.6188 7.79585 12.2105 7.38756 11.6938 7.08134C11.1834 6.77512 10.6188 6.62201 10 6.62201C9.38118 6.62201 8.81659 6.77512 8.30622 7.08134C7.79585 7.38756 7.38756 7.79585 7.08134 8.30622C6.77512 8.81021 6.62201 9.37161 6.62201 9.99043C6.62201 10.6092 6.77193 11.177 7.07177 11.6938C7.37799 12.2041 7.78628 12.6124 8.29665 12.9187C8.8134 13.2249 9.38118 13.378 10 13.378Z" fill="#A1A1A3"/>
</svg>
